<?xml version="1.0" encoding="utf-8"?>
<!-- Generator: Adobe Illustrator 19.2.0, SVG Export Plug-In . SVG Version: 6.00 Build 0)  -->
<svg version="1.1" id="Layer_1" xmlns="http://www.w3.org/2000/svg" xmlns:xlink="http://www.w3.org/1999/xlink" x="0px" y="0px"
	 viewBox="0 0 960 560" enable-background="new 0 0 960 560" xml:space="preserve">
<rect x="365.6" y="270.1" fill="none" width="225.9" height="35.3"/>
<text transform="matrix(1 0 0 1 366.5311 293.7627)" fill="#F4F4F4" font-family="'NewsGothicMT'" font-size="32px">ALEX LOOMER</text>
<rect x="459.1" y="341" fill="none" width="38.8" height="6.4"/>
<text transform="matrix(1 0 0 1 459.7049 346.8783)" fill="#F4F4F4" font-family="'NewsGothicMT'" font-size="8px">EST 2013</text>
<rect x="439.5" y="307.6" fill="none" width="76.9" height="15.7"/>
<text transform="matrix(1 0 0 1 439.9778 322.4248)" fill="#F4F4F4" font-family="'NewsGothicMT'" font-size="20px">DESIGN</text>
<path fill="#F4F4F4" d="M475.3,224.7c0.1,0.4,0.1,0.8,0.3,1.2c0.2,0.4,0.5,0.8,0.8,1.2c0.3,0.4,0.2,0.8,0,1.3c-0.6-0.4-1-1.2-1.8-1
	c0.1,0.1,0.1,0.3,0.3,0.4c0.5,0.4,0.5,0.9,0.6,1.5c0.1,0.7,0.2,1.4,0.1,2.1c0,0,0,0.1-0.1,0.3c-0.1-0.3-0.3-0.4-0.3-0.6
	c-0.1-0.8-0.2-0.9-1.2-1.1c0.2,0.4,0.3,0.8,0.5,1.3c0,0-0.1,0.1-0.3,0.2c-0.1-0.2-0.2-0.3-0.4-0.4c-0.2-0.2-0.3-0.4-0.6-0.4
	c-0.2,0-0.4-0.2-0.6-0.3c-0.1-0.1-0.3-0.1-0.4-0.1c-0.1,0-0.1,0.2-0.1,0.3c0,2-0.1,4-0.1,6c0,0.3,0.2,0.7,0.3,1
	c0,0.2,0.1,0.3,0.1,0.5c0,0-0.1,0-0.1,0c0-0.1-0.1-0.3-0.1-0.4c0,0-0.1,0-0.1,0c0,0.7,0,1.4,0,2.1c0,1.2,0,2.3,0,3.5
	c0,0.8,0.1,1.5,0.1,2.3c0,0.5-0.1,1-0.1,1.4c0,1.4,0.1,2.9,0.2,4.3c0,0.3-0.1,0.6-0.1,1c0,0.5,0.2,1,0.1,1.4
	c-0.3,1.5,0.2,2.9-0.1,4.4c-0.1,0.6,0.1,1.1,0.2,1.8c-0.4,0-0.8,0-1.2,0c0-1,0-2,0-3c0-1.3,0-2.7,0-4c0-2.1,0-4.1,0-6.2
	c0-0.9,0-1.8-0.1-2.7c0-0.2-0.1-0.4-0.2-0.6c0.1,0,0.1,0,0.3,0c0-1.6,0.1-3.2,0-4.8c-0.1-0.9,0-1.9-0.1-2.8c0-0.2-0.1-0.3-0.2-0.5
	c0.1,0,0.2,0,0.2,0c0.1-1.5,0.1-3.1,0.2-4.6c-0.1,0.1-0.2,0.1-0.3,0.1c0.1-0.3,0.1-0.6,0.1-0.9c0-0.2,0-0.4,0-0.6
	c-0.3,0.1-0.7-0.3-0.9,0.2c-0.2,0.6-0.7,0.5-1.2,0.6c-0.1,0-0.3-0.2-0.4-0.3c0.8-0.1,0.6-0.9,1.1-1.2c0-0.1,0-0.1,0-0.2
	c-0.2,0-0.5-0.1-0.7,0c-0.2,0-0.2,0.3-0.4,0.4c-0.2,0.2-0.3,0.4-0.5,0.5c-0.1,0-0.1-0.1-0.2-0.1c0.2-0.5,0.4-1.1,0.5-1.6
	c0.1-0.2,0.2-0.4,0.2-0.6c0-0.4,0.2-0.6,0.6-0.8c0.3-0.1,0.5-0.3,0.8-0.5c-0.7-0.2-1.4-0.1-2,0.4c-0.2-0.8,0.1-1.4,0.9-1.9
	c0.2-0.1,0.3-0.3,0.4-0.5c0.3-0.3,0.5-0.7,0.8-1c0.3-0.3,0.6-0.5,0.8-0.9c-0.2,0.1-0.3,0.3-0.5,0.4c-0.1-0.3-0.1-0.3,0.5-1.3
	c-0.5,0.5-1,0.9-1.5,1.4c0-0.2-0.1-0.4,0-0.5c0.2-0.7,0.5-1.5,0.8-2.2c0.2-0.5,0.2-0.7-0.3-1c0.3-0.4,0.6-0.9,1-1.4
	c-0.5,0.2-1,0.2-1.3,0.4c-0.4,0.2-0.6,0.7-0.9,1c-0.3-1.1,0.5-2,1.4-2.2c0.3,0,0.4-0.2,0.4-0.5c0-0.3,0.2-0.7,0.3-1
	c0-0.1,0-0.2,0-0.3c-0.1,0-0.2,0-0.3,0c-0.6,0.2-1.2,0.4-1.9,0.3c0.1-0.4,0.1-0.8,0.6-0.9c0.3-0.1,0.6-0.2,0.9-0.2
	c0,0,0,0.1,0.1,0.1c0.1-0.2,0.2-0.4,0.3-0.6c-0.3-0.1-0.5-0.2-0.7-0.3c0-0.8,0.2-1.1,0.9-1.3c0.4-0.2,0.4-0.6,0.4-0.8
	c0-0.8,0-0.8,0.6-1.1c0,0,0-0.1,0-0.1c-0.2,0.1-0.4,0.1-0.7,0.2c0.2-0.4,0.3-0.6,0.5-0.9c-0.4,0.2-0.8,0.4-1.1,0.5
	c0-0.1-0.1-0.1-0.1-0.1c-0.2-0.6,0.6-0.7,0.5-1.3c-0.1-0.5,0.4-0.9,0.8-1.2c0.1,0,0.1-0.1,0.2-0.2c-0.6-0.5-0.5-0.5-0.1-1.1
	c0.2-0.2,0.2-0.5,0.3-0.8c0-0.1-0.2-0.2-0.3-0.3c-0.1,0-0.2,0-0.4,0c0.1-0.5,0.1-0.5,0.6-0.3c0-0.2,0-0.3,0.1-0.4
	c-0.2-0.1-0.3-0.2-0.5-0.2c0.1-0.1,0.3-0.3,0.4-0.4c0-0.2,0-0.5,0.1-0.8c0.1-0.3,0.3-0.5,0.5-0.7c-0.1,0-0.2,0-0.4,0
	c0.1-0.4,0.2-0.7,0.3-1.1c0.1-0.4,0.1-0.7,0.1-1.1c0.1-0.1,0.1-0.1,0.2-0.2c0,0.1,0,0.2,0,0.3c0,0.2,0,0.4,0,0.6
	c-0.1,0.5,0,1,0.3,1.5c0.1,0.2,0.1,0.5,0.1,0.7c-0.1,0.4-0.3,0.7,0.2,1c0.1,0,0.1,0.3,0.2,0.5c-0.4-0.2-0.5,0-0.5,0.2
	c0,0.8,0,1.5,0,2.3c0.2,0.1,0.3,0.1,0.5,0.2c0,0.1,0,0.2-0.1,0.3c-0.2,0.5,0,0.9,0.5,1.1c0.2,0.1,0.3,0.2,0.5,0.3
	c-0.5,0.6-0.9,1.2-0.7,1.9c0.7-0.1,1.3,0.6,1.4,1.5c-0.2-0.2-0.4-0.4-0.5-0.5c-0.3,0-0.5,0-0.8,0c-0.3,0-0.5,0.1-0.7,0.3
	c-0.1,0.1,0.1,0.4,0.2,0.6c0.2,0.4,0.4,0.8,0.5,1.2c0.1,0.4,0.2,0.8,0.6,1c0.2,0.1,0.3,0.3,0.5,0.6c0.3-1,0.5-2,0.8-2.9
	c0.1-0.3,0.1-0.6,0.2-0.8c0.3-0.5,0.4-0.9,0-1.4c-0.2-0.3,0.3-1.3,0.6-1.3c0.6,0,0.4-0.5,0.4-0.7c0-0.2-0.2-0.6-0.4-0.6
	c-0.5-0.1-0.4-0.3-0.2-0.6c0.2-0.2,0.4-0.5,0.6-0.7c0.5-0.4,0.5-1.1-0.2-1.5c-0.3,0.3-0.7,0.6-1.1,1c0,0-0.2,0-0.5-0.1
	c0.3-0.4,0.6-0.8,0.9-1.2c0.1-0.2,0.2-0.4,0.3-0.6c0.2-0.7,0.5-1.3,0.6-2c0.1-0.2,0.1-0.5,0-0.6c-0.1-0.1-0.4-0.2-0.6-0.2
	c-0.2,0-0.4,0-0.7,0c-0.1,0.1-0.3,0.4-0.5,0.6c0-1,0.7-1.9,1.3-1.7c0.2-0.9-0.1-1.6-0.6-2.3c0.7-0.5,1.5-1,0.8-2.1
	c0.2-0.1,0.3-0.1,0.4-0.2c0-0.6,0-1.3,0-1.9c0-0.3,0.1-0.5,0.1-0.8c0-0.2,0-0.4-0.4-0.5c0-0.2-0.1-0.4,0.2-0.6
	c0.2-0.1,0.2-0.5,0.1-0.8c-0.2-0.6-0.1-1.1,0.2-1.6c0.1-0.2,0.1-0.5,0.1-0.8c0-0.5,0-1-0.1-1.5c0.1,0,0.1,0,0.2,0
	c0,0.2,0,0.4,0.1,0.7c0,0.3,0.1,0.6,0.1,0.9c0,0.4,0.1,0.7,0.1,1.1c0,0.1-0.1,0.1-0.1,0.1c0.1,0.6,0.2,1.2,0.3,1.8
	c0,0.1,0.1,0.1,0.2,0.2c0.1,0.1,0.2,0.3,0.3,0.5c-0.3,0-0.4,0-0.5,0c0,0.2,0,0.4,0,0.6c0.5-0.2,0.5-0.2,0.6,0.3
	c-0.2,0-0.5,0.1-0.5,0.1c0,0.4,0,0.8,0.2,1.1c0.4,0.7,0.5,0.7-0.1,1.3c0.2,0.3,0.5,0.6,0.7,0.9c0.1,0.1,0.2,0.2,0.2,0.3
	c0,0.7,0.3,1.3,0.5,1.9c0,0,0,0.1,0,0.1c0,0,0,0.1-0.1,0.2c-0.3-0.2-0.7-0.4-1-0.6c0.1,0.4,0.2,0.7,0.3,1c-0.6-0.3-0.6-0.3-0.7,0
	c0.7,0.4,0.7,0.4,0.7,1.2c0,0.4-0.1,0.9,0.5,1.2c0.5,0.2,0.8,0.8,0.6,1.5c-0.2,0.1-0.4,0.2-0.6,0.3c0.1,0.3,0.2,0.5,0.3,0.7
	c0.6-0.3,1.3,0.3,1.4,1.3c-0.6,0.2-1.1-0.1-1.6-0.3c-0.1,0-0.2-0.1-0.4-0.1c0,0.1,0,0.3,0,0.4c0.2,0.5,0.5,0.9,0.3,1.5
	c0,0.1,0.1,0.3,0.2,0.3c0.6,0.1,1,0.5,1.4,1.1c0.1-0.2,0.2-0.4,0.3-0.6c-0.2-0.1-0.5-0.2-0.7-0.3c-0.1-0.8,0.3-1.3,1-1.6
	c0.2-0.1,0.3-0.6,0.3-0.9c0-0.9,0-0.9,0.7-1.2c-0.1-0.2-0.1-0.2-0.7,0.1c-0.3-0.4,0.2-0.6,0.3-1c-0.5,0.2-0.9,0.4-1.3,0.7
	c-0.1-0.5,0.1-0.8,0.4-1.1c0.1-0.1,0.2-0.2,0.2-0.3c-0.2-0.7,0.3-1.1,0.7-1.5c0.1-0.1,0.2-0.2,0.4-0.3c-0.1-0.1-0.2-0.2-0.2-0.2
	c-0.4-0.3-0.3-0.6,0-0.9c0.2-0.3,0.3-0.7,0.4-1c0,0-0.4-0.2-0.6-0.3c0-0.1,0-0.2,0.1-0.5c0.2,0.1,0.4,0.1,0.6,0.2c0-0.2,0-0.4,0-0.6
	c-0.1,0-0.3,0-0.4,0c-0.1-0.3-0.1-0.5,0.2-0.5c0.1,0,0.2-0.2,0.2-0.2c-0.1-0.6,0.1-1.1,0.5-1.5c0,0,0-0.1,0-0.2
	c-0.1,0-0.2,0-0.3,0.1c0-0.4-0.2-0.9,0.2-1.3c0.2-0.2,0.1-0.6,0.1-1c0-0.1,0.1-0.2,0.1-0.3c0.1,0.1,0.1,0.2,0.2,0.3
	c0,0.2,0,0.4,0,0.6c-0.1,0.6,0,1.1,0.3,1.7c0.1,0.3,0.1,0.6,0.1,0.9c-0.1,0.4-0.3,0.8,0.3,1.1c0.1,0.1,0.1,0.3,0.2,0.6
	c-0.4-0.3-0.5,0-0.5,0.2c0,0.9,0,1.8,0,2.6c0.2,0.1,0.4,0.1,0.6,0.2c-0.5,0.9-0.4,1.2,0.5,1.7c0.1,0.1,0.2,0.2,0.4,0.3
	c-0.6,0.3-0.9,1.3-0.7,2.2c0.7-0.1,1.5,0.7,1.5,1.7c-0.2-0.2-0.4-0.5-0.5-0.6c-0.4,0-0.7-0.1-0.9-0.1c-0.3,0-0.6,0.1-0.7,0.3
	c-0.1,0.1,0,0.4,0.1,0.6c0.2,0.5,0.4,1,0.6,1.6c0.1,0.4,0.2,0.8,0.6,1c0.3,0.2,0.5,0.6,0.8,1c-0.2,0.1-0.4,0.1-0.6,0.2
	c0,0,0.1-0.1,0.1-0.1c-0.4-0.3-0.8-0.6-1.2-0.9c-0.1-0.1-0.4,0.1-0.5,0.3c-0.2,0.3,0,0.8,0.3,1.1c0.3,0.2,0.6,0.5,0.8,0.7
	c0.2,0.2,0.1,0.4-0.2,0.5c-0.5,0.1-0.8,0.7-0.5,1.1c0,0,0.1,0.1,0.1,0.1c0.4-0.1,0.6,0.2,0.7,0.5c0.1,0.1,0.3,0.2,0.5,0.4
	c0,0,0,0.1,0,0.2c-0.4,0.4-0.2,0.8,0,1.2c0.3,0.5,0.4,1.2,0.6,1.7c0.2,0.7,0.4,1.4,0.7,2.1c-0.2,0.1-0.2,0.1-0.8-0.5
	c-0.2-0.3-0.4-0.6-0.6-0.9c0,0-0.1,0.1-0.2,0.1c-0.1-0.2-0.2-0.3-0.3-0.4c-0.1,0.2-0.3,0.3-0.3,0.5c-0.1,0.1,0,0.3,0,0.5
	c0,0.3,0.1,0.4,0.4,0.4c0.5,0,0.9,0.2,1.1,0.8c0.1,0.3,0.5,0.5,0.6,0.8c0.2,0.4,0.3,1,0.5,1.4c0.1,0.3,0.2,0.5,0.3,0.7
	c0.5,0.6,0.8,1.5,0.5,2.4c-0.3-0.2-0.5-0.4-0.7-0.6c-0.2-0.2-0.4-0.6-0.8-0.4c-0.1,0-0.2-0.2-0.5-0.2c0.2,0.3,0.3,0.6,0.6,0.8
	c0.3,0.3,0.5,0.6,0.4,1.1c-0.1,0.3,0.1,0.7,0.1,1c0,0.6,0,1.3,0,1.9c-0.1,0-0.1,0-0.2,0c-0.1-0.2-0.2-0.4-0.2-0.6
	c-0.1-0.8-0.3-1-1.2-1.2c0.1,0.4,0.1,0.8,0.3,1c0.3,0.4,0.1,0.5-0.1,0.7c-0.1-0.1-0.2-0.2-0.3-0.2c-0.2-0.3-0.4-0.7-0.9-0.6
	c-0.2,0-0.4-0.3-0.7-0.4c0,0.1-0.1,0.1-0.1,0.2c0,2.3-0.1,4.5,0,6.8c0,0.5,0.2,1,0.3,1.5c0,0.1,0,0.3-0.1,0.4c0-0.1-0.1-0.3-0.1-0.4
	c0,0-0.1,0-0.1,0c0,1.4-0.2,2.9,0,4.3c0.2,1.3,0.1,2.6,0.1,3.9c0.1,2.5,0.1,5.1,0.1,7.6c0,2,0.1,4.1,0.2,6.1c0,0.8,0.1,1.7,0.1,2.5
	c0,0.1,0,0.2,0,0.4c-0.4,0-0.7,0-1.1,0c0-0.7,0-1.5,0-2.2c0-1.7,0-3.5,0-5.2c0-0.3-0.2-0.6-0.2-0.9c0-1,0.1-2,0.1-2.9
	c0-0.7,0-1.4,0-2.1c-0.1-1.6-0.2-3.1-0.2-4.7c0-1.4,0.1-2.9,0-4.3c-0.1-1.1,0.1-2.2-0.1-3.2c0-0.2-0.1-0.4-0.1-0.6
	c0.1-0.1,0.2-0.3,0.2-0.4c0-2.1,0-4.2,0-6.3c0,0-0.1,0.1-0.2,0.1c0-0.2,0.1-0.3,0.1-0.4c0,0,0-0.1-0.1-0.1c-0.5,0-0.5-0.2-0.4-0.6
	c0-0.1,0-0.2,0-0.4c-0.1,0-0.3,0-0.4,0.1c-0.5,0.5-1.1,0.4-1.6,0.7c-0.3,0.1-0.5-0.1-0.5-0.5c0.6,0.2,0.5-0.5,0.8-0.7
	c0,0,0-0.2,0-0.2c0.1-0.1,0.2-0.3,0.3-0.4c-0.2,0-0.3-0.1-0.5-0.1c-0.2,0.1-0.6,0.2-0.6,0.3c0,0.5-0.3,0.7-0.8,0.7
	c0.2-0.7,0.3-1.3,0.4-2c-0.1,0-0.3,0-0.5,0c0,1.6,0,3.3,0,4.9c0,0.8-0.1,1.6,0.4,2.3c0.1,0.1,0,0.3-0.1,0.4c0-0.2,0-0.4-0.1-0.6
	c0,0-0.1,0-0.1,0c0,0.8-0.1,1.6-0.1,2.4c0,1.8,0,3.6,0,5.4c0,1.1,0.1,2.3,0.1,3.4c0,1.4,0.1,2.8,0.1,4.2c0,1.7-0.1,3.4,0,5
	c0.1,1.7,0.2,3.4,0.2,5.1c0,1.1,0.1,2.3,0.1,3.4c0,0.2,0,0.3,0,0.5c-0.4,0-0.7,0-1.1,0c0-0.8,0-1.6,0-2.4c0-2.7-0.1-5.4-0.1-8.1
	c0-1.8,0-3.7,0-5.5c0-1.6,0-3.2,0-4.8c0-0.3-0.1-0.5-0.2-0.8c0.1,0,0.1,0,0.2,0c0-4.9,0-9.7,0-14.5c-0.2,0.1-0.6,0.1-0.9,0.3
	c-0.1,0.1-0.2,0.2-0.3,0.4c-0.1,0.1-0.2,0.3-0.3,0.5C475.6,224.8,475.5,224.7,475.3,224.7c0.1-0.2,0.2-0.3,0.2-0.4
	c0.1-0.3,0.2-0.6,0.3-1c-0.1,0-0.1-0.1-0.2-0.1c-0.2,0.1-0.5,0.2-0.7,0.4c-0.1,0.1-0.1,0.4-0.1,0.6
	C475,224.4,475.2,224.5,475.3,224.7z M473.9,218.6c0.4,0,0.4-0.2,0.4-0.4c0.1-0.5,0.1-0.9,0.3-1.3c0.2-0.5,0.6-1,0.8-1.5
	c0.1-0.2,0.2-0.3,0.5-0.3c0.7-0.2,0.7-0.2,0.6-1c0-0.1,0-0.2,0-0.3c-0.1-0.1-0.2-0.2-0.2-0.2c-0.1,0.1-0.2,0.2-0.2,0.3
	c0,0.1,0,0.1,0,0.2c-0.1-0.1-0.2-0.2-0.2-0.2c-0.4,0.6-0.7,1.2-1,1.7c-0.2,0-0.4,0-0.5,0c-0.4-0.3-0.8-0.6-1.2-0.8
	c-0.1-0.1-0.5,0.1-0.5,0.3c-0.1,0.3-0.2,0.7,0.3,0.9c0.4,0.2,0.8,0.4,0.8,1c-0.2,0-0.3,0-0.4,0.1c-0.2,0.2-0.3,0.4-0.4,0.6
	c0,0.1,0.1,0.5,0.2,0.5C473.6,217.9,473.7,218.3,473.9,218.6z M479.5,209.5c0.1,0.2,0.2,0.4,0.1,0.5c-0.3,0.5-0.1,0.8,0.2,1.2
	c0.1,0,0.3-0.1,0.4-0.1c0.5,0,0.7-0.2,0.6-0.7c0-0.2,0.1-0.4,0.1-0.5c0.1-0.3,0.2-0.5,0.4-0.8c0,0-0.1-0.1-0.1-0.1
	c-0.2,0-0.4,0.1-0.4,0.2c-0.1,0.1-0.1,0.3-0.1,0.6c-0.1-0.2-0.2-0.3-0.3-0.4C480.1,209.4,479.8,209.4,479.5,209.5z M479.3,213.1
	c0.1,0.4,0.1,0.7,0.2,1c0,0-0.1,0-0.1,0c-0.2-0.1-0.3-0.3-0.5-0.4c0,0-0.1,0.1-0.1,0.1c0.4,0.5,0.9,1,1.4,1.5
	c0.2-0.5,0.3-0.9,0.5-1.3c0,0-0.1,0-0.1-0.1c-0.1,0.1-0.2,0.1-0.2,0.1C480,213.7,479.6,213.4,479.3,213.1z M473.9,222.1
	c-0.2-0.1-0.3-0.2-0.5-0.3c-0.1,0.3-0.2,0.6-0.2,0.9c0,0.1,0.2,0.3,0.3,0.3c0.2,0.1,0.5,0.1,0.9,0.2c-0.1-0.4-0.2-0.8-0.3-1.2
	C474,222.1,473.9,222.1,473.9,222.1z M481.2,212c-0.4,0.1-0.7,0.2-1,0.3c0.1,0.3,0.1,0.5,0.2,0.8C480.6,212.7,480.9,212.4,481.2,212
	z M474.6,221.1c0.3-0.4,0.5-0.8,0.7-1.1c-0.2,0-0.4,0-0.6,0.1c-0.1,0.1-0.2,0.2-0.3,0.4C474.4,220.7,474.5,220.8,474.6,221.1z
	 M479.7,208.3c-0.3-0.1-0.7-0.2-1-0.3c0.2,0.3,0.3,0.5,0.4,0.6C479.2,208.5,479.4,208.4,479.7,208.3z"/>
<path fill="#F4F4F4" d="M488.6,224.8c0.1-0.5,0.2-1-0.5-1c0,0-0.1-0.3,0-0.4c0.2-0.2,0.4-0.5,0.7-0.6c0.4-0.2,0.3-0.5,0.2-0.8
	c-0.1-0.3-0.4-0.4-0.6-0.2c-0.3,0.2-0.5,0.4-0.8,0.7c0,0-0.2,0-0.4-0.1c0.2-0.3,0.3-0.6,0.6-0.8c0.4-0.3,0.4-0.6,0.6-1
	c0.1-0.4,0.3-0.8,0.5-1.2c0.1-0.2,0.2-0.5,0.1-0.5c-0.1-0.1-0.4-0.2-0.6-0.2c-0.2,0-0.4,0-0.7,0c-0.1,0.1-0.3,0.3-0.4,0.5
	c0-0.8,0.6-1.5,1.3-1.4c0.2-0.7-0.1-1.3-0.6-1.9c0.5-0.4,1.4-0.6,0.7-1.6c0.8-0.3,0.3-0.9,0.4-1.4c0.1-0.3,0-0.6,0-0.9
	c0-0.3,0-0.5-0.4-0.4c0-0.2,0-0.4,0.1-0.4c0.4-0.2,0.2-0.5,0.2-0.8c0-0.3-0.1-0.7,0.1-1c0.2-0.4,0.2-0.8,0.2-1.2c0-0.2,0-0.5,0-0.8
	c0.4,0.3,0.6,2,0.3,2.1c0.1,0.5,0.2,0.9,0.3,1.4c0,0.1,0.1,0.2,0.1,0.2c0.1,0.1,0.2,0.2,0.2,0.3c-0.1,0.1-0.3,0.1-0.4,0.2
	c0,0.1,0,0.3,0,0.5c0.5-0.2,0.5-0.2,0.5,0.2c-0.2,0.1-0.5,0.1-0.5,0.1c0,0.3,0,0.7,0.2,0.9c0.4,0.6,0.4,0.5-0.1,1
	c0.3,0.2,0.5,0.4,0.7,0.7c0.1,0.2,0.1,0.5,0.2,0.7c0,0.1,0.1,0.2,0.1,0.4c0.1,0.3,0.2,0.5,0.4,0.8c0,0-0.1,0.1-0.1,0.1
	c-0.3-0.2-0.6-0.3-1-0.5c0.1,0.3,0.2,0.5,0.4,0.9c-0.3-0.1-0.5-0.2-0.6-0.2c0,0,0,0.1,0,0.1c0.1,0,0.2,0.1,0.2,0.1
	c0.2,0.2,0.4,0.4,0.4,0.6c-0.1,0.6,0,1,0.6,1.3c0.5,0.2,0.5,0.6,0.4,1.1c-0.2,0.1-0.4,0.2-0.6,0.2c0.1,0.2,0.2,0.4,0.3,0.6
	c0.6-0.2,1.2,0.3,1.4,1.2c-0.7-0.2-1.3-0.3-2-0.5c0.1,0.2,0.1,0.4,0.2,0.5c0.1,0.3,0.1,0.6,0.2,0.8c0.1,0.1,0.2,0.3,0.3,0.4
	c0.8,0.2,1.3,0.7,1.3,1.5c0,0.2,0,0.4,0,0.6c-0.4-0.8-0.9-1.3-1.9-1.3c0.2,0.3,0.4,0.5,0.6,0.8c0.2,0.3,0.6,0.6,0.3,1.1
	c-0.1,0.1,0.1,0.4,0.1,0.5c0.3,0.8,0.7,1.5,0.6,2.5c-0.4-0.4-0.9-0.8-1.3-1.2c0.2,0.4,0.4,0.8,0.6,1.1c0,0-0.1,0.1-0.1,0.1
	c-0.2-0.1-0.3-0.2-0.5-0.3c0,0,0,0-0.1,0.1c0.2,0.2,0.5,0.4,0.7,0.7c0.3,0.4,0.6,0.8,0.9,1.1c0.3,0.3,0.6,0.6,1,0.9
	c0.3,0.3,0.3,0.7,0.3,1.1c-0.6-0.1-1.2-0.7-1.8-0.3c0.1,0.1,0.3,0.3,0.5,0.4c0.4,0.2,0.5,0.4,0.6,0.8c0.1,0.6,0.4,1.3,0.5,1.9
	c0,0.1,0,0.2,0,0.3c-0.3-0.1-0.5-0.1-0.6-0.5c-0.1-0.4-0.5-0.3-1-0.2c0.5,0.4,0.3,1.1,1.1,1.2c0,0.4-0.1,0.5-0.5,0.4
	c-0.6-0.2-1.2,0.1-1.8,0.2c-0.1,0-0.3,0.3-0.3,0.4c0,1,0,2.1,0,3.1c0,0,0,0,0,0c0.2,0.5,0,1.1,0,1.6c0,0.6,0,1.1,0,1.7
	c0,0.5,0.1,1,0.1,1.6c0,0.4-0.1,0.7-0.2,1.1c0,0.1,0,0.2,0,0.2c0,1.4,0.1,2.8,0.1,4.2c0,0.2,0.1,0.3,0.2,0.5c0,0.2,0.1,0.3,0,0.5
	c-0.2,1-0.1,2-0.2,3c0,1.3,0,2.6,0.1,3.9c0,0.4,0.1,0.8,0.1,1.3c-0.3,0-0.5,0-0.8,0c0-0.8,0-1.6,0-2.5c0-1,0-1.9,0-2.9
	c0-2.3-0.1-4.5-0.1-6.8c0-0.8,0-1.5-0.1-2.3c0-0.2-0.1-0.3-0.1-0.5c0.1-0.1,0.2-0.1,0.2-0.2c0-1.2,0-2.4,0-3.6c0-1.2,0-2.4,0-3.6
	c0-0.3-0.1-0.5-0.1-0.7c-0.4,0.1-0.8,0.2-1,0.3c-0.2,0.1-0.4,0.4-0.7,0.7c-0.1-0.1-0.2-0.1-0.3-0.2c0.1-0.2,0.3-0.3,0.4-0.5
	c0.1-0.2,0-0.4,0.1-0.6c-0.7,0.1-0.9,0.3-1,1c0,0.2-0.1,0.3-0.2,0.4c-0.2-0.6-0.3-1.1-0.1-1.7c0.1-0.2,0.1-0.5,0.1-0.7
	c-0.1-0.4,0.1-0.7,0.3-0.9c0.2-0.2,0.3-0.4,0.5-0.6c0,0-0.1-0.1-0.1-0.1c-0.5,0.3-1.1,0.7-1.6,1c-0.2-0.4-0.2-0.7,0-1.1
	c0.4-0.7,0.8-1.3,0.9-2.1c0-0.2,0.2-0.4,0.4-0.6c0.1-0.1,0.2-0.2,0.3-0.3c0.2-0.5,0.5-0.9,1.1-0.9c0.1,0,0.2-0.5,0.2-0.7
	c0-0.1-0.1-0.3-0.2-0.4c-0.1,0.1-0.2,0.2-0.4,0.4c0,0-0.1-0.1-0.2-0.1c-0.1,0.7-0.6,1-1,1.4c0,0-0.1-0.1-0.1-0.1
	c0.2-0.8,0.5-1.6,0.7-2.3c0.1-0.4,0.3-0.7,0.5-1.1c0.1-0.2,0.1-0.4,0-0.6C487.6,225.6,487.9,224.9,488.6,224.8z"/>
<path fill="#F4F4F4" d="M473.9,218.6c-0.2-0.3-0.3-0.7-0.8-0.7c-0.1,0-0.2-0.3-0.2-0.5c0.1-0.2,0.2-0.4,0.4-0.6
	c0.1-0.1,0.3,0,0.4-0.1c0-0.6-0.4-0.8-0.8-1c-0.4-0.2-0.4-0.6-0.3-0.9c0-0.1,0.4-0.3,0.5-0.3c0.4,0.2,0.7,0.5,1.2,0.8
	c0.1,0,0.3,0,0.5,0c0.3-0.5,0.7-1.1,1-1.7c0,0,0.1,0.1,0.2,0.2c0-0.1,0-0.2,0-0.2c0.1-0.1,0.1-0.2,0.2-0.3c0.1,0.1,0.2,0.1,0.2,0.2
	c0,0.1,0,0.2,0,0.3c0.1,0.8,0.1,0.8-0.6,1c-0.2,0.1-0.3,0.1-0.5,0.3c-0.3,0.5-0.6,1-0.8,1.5c-0.2,0.4-0.3,0.9-0.3,1.3
	C474.3,218.4,474.2,218.6,473.9,218.6z"/>
<path fill="#F4F4F4" d="M479.5,209.5c0.3-0.1,0.5-0.1,0.8-0.2c0.1,0.1,0.2,0.2,0.3,0.4c0-0.2,0-0.5,0.1-0.6c0.1-0.1,0.3-0.1,0.4-0.2
	c0,0,0.1,0.1,0.1,0.1c-0.1,0.3-0.2,0.5-0.4,0.8c-0.1,0.2-0.2,0.4-0.1,0.5c0.1,0.5-0.1,0.7-0.6,0.7c-0.1,0-0.2,0.1-0.4,0.1
	c-0.2-0.4-0.5-0.8-0.2-1.2C479.7,209.9,479.6,209.7,479.5,209.5z"/>
<path fill="#F4F4F4" d="M479.3,213.1c0.4,0.3,0.7,0.6,1.1,0.9c0,0,0.1-0.1,0.2-0.1c0,0,0.1,0,0.1,0.1c-0.2,0.4-0.3,0.8-0.5,1.3
	c-0.5-0.5-0.9-1-1.4-1.5c0,0,0.1-0.1,0.1-0.1c0.2,0.1,0.3,0.3,0.5,0.4c0,0,0.1,0,0.1,0C479.4,213.8,479.3,213.4,479.3,213.1z"/>
<path fill="#F4F4F4" d="M473.9,222.1c0,0,0.1-0.1,0.2-0.2c0.1,0.4,0.2,0.8,0.3,1.2c-0.3-0.1-0.6-0.1-0.9-0.2
	c-0.1-0.1-0.4-0.2-0.3-0.3c0-0.3,0.1-0.6,0.2-0.9C473.6,221.9,473.7,222,473.9,222.1z"/>
<path fill="#F4F4F4" d="M475.3,224.7c-0.1-0.1-0.4-0.3-0.4-0.4c-0.1-0.2,0-0.4,0.1-0.6c0.2-0.2,0.5-0.3,0.7-0.4
	c0.1,0,0.1,0.1,0.2,0.1c-0.1,0.3-0.2,0.6-0.3,1C475.5,224.4,475.4,224.5,475.3,224.7L475.3,224.7z"/>
<path fill="#F4F4F4" d="M481.2,212c-0.3,0.4-0.5,0.7-0.8,1.1c-0.1-0.3-0.2-0.5-0.2-0.8C480.5,212.2,480.8,212.1,481.2,212z"/>
<path fill="#F4F4F4" d="M474.6,221.1c-0.1-0.3-0.2-0.5-0.2-0.6c0-0.1,0.1-0.3,0.3-0.4c0.2-0.1,0.4-0.1,0.6-0.1
	C475.1,220.4,474.9,220.7,474.6,221.1z"/>
<path fill="#F4F4F4" d="M479.7,208.3c-0.2,0.1-0.4,0.2-0.7,0.3c-0.1-0.1-0.2-0.3-0.4-0.6C479,208.1,479.3,208.2,479.7,208.3z"/>
<line fill="none" stroke="#F4F4F4" stroke-width="0.5" stroke-miterlimit="10" x1="519" y1="315.5" x2="536.6" y2="315.5"/>
<line fill="none" stroke="#F4F4F4" stroke-width="0.5" stroke-miterlimit="10" x1="420" y1="315.5" x2="437.7" y2="315.5"/>
</svg>
