<?xml version="1.0" encoding="utf-8"?>
<!-- Generator: Adobe Illustrator 19.2.1, SVG Export Plug-In . SVG Version: 6.00 Build 0)  -->
<svg version="1.1" id="Layer_1" xmlns="http://www.w3.org/2000/svg" xmlns:xlink="http://www.w3.org/1999/xlink" x="0px" y="0px"
	 viewBox="0 0 274.6 8.8" enable-background="new 0 0 274.6 8.8" xml:space="preserve">
<path fill="#FFFFFF" d="M0,4c0,0.4,0,0.9,0,1.3c40.4,0,80.8,0,121.2,0c0-0.4,0-0.9,0-1.3C80.8,4,40.4,4,0,4z"/>
<path fill="#FFFFFF" d="M153.6,4c0,0.4,0,0.9,0,1.3c40.3,0,80.6,0,121,0c0-0.4,0-0.9,0-1.3C234.3,4,194,4,153.6,4z"/>
<path fill="#FFFFFF" d="M132.7,4.6c1.3,1.5,2.4,2.7,3.7,4.2c1.4-1.6,2.4-2.8,3.6-4.3c-1.2-1.5-2.3-2.9-3.7-4.6
	C134.9,1.7,133.9,3.1,132.7,4.6z"/>
<path fill="#EEEEEE" d="M0,4c40.4,0,80.8,0,121.2,0c0,0.4,0,0.9,0,1.3c-40.4,0-80.8,0-121.2,0C0,4.9,0,4.5,0,4z"/>
<path fill="#EEEEEE" d="M153.6,4c40.3,0,80.6,0,121,0c0,0.4,0,0.9,0,1.3c-40.3,0-80.6,0-121,0C153.6,4.9,153.6,4.4,153.6,4z"/>
<path fill="#EEEEEE" d="M132.7,4.6c1.2-1.5,2.3-2.9,3.6-4.6c1.4,1.7,2.5,3.1,3.7,4.6c-1.2,1.4-2.2,2.7-3.6,4.3
	C135.1,7.3,134,6.1,132.7,4.6z"/>
</svg>
